<svg xmlns="http://www.w3.org/2000/svg" viewBox="0 0 40 56.09"><defs><style>.cls-1{fill:#21365b;}.cls-2{fill:#7ab472;}</style></defs><g id="Layer_2" data-name="Layer 2"><g id="Layer_1-2" data-name="Layer 1"><path class="cls-1" d="M39.36,18.06a3.24,3.24,0,0,1,.07,3.77,11.32,11.32,0,0,1-1.17,1.58,3.06,3.06,0,0,0-.74,2.91,9.11,9.11,0,0,1,.2,2,3.07,3.07,0,0,1-1.81,3c-.77.39-1.58.68-2.36,1.05a2.17,2.17,0,0,0-1.24,2.89q2.73,7.53,5.49,15a1.22,1.22,0,0,1-.12,1.4c-.43.45-.92.24-1.38,0-1.93-.89-3.88-1.77-5.8-2.7-.55-.26-.8-.15-1,.38-.87,1.93-1.78,3.83-2.66,5.75-.23.48-.46,1-1.1,1s-.83-.54-1-1q-2.18-6-4.36-12c-.07-.18,0-.44-.33-.45s-.26.26-.33.45Q17.49,49,15.33,55a2,2,0,0,0-.09.26,1.09,1.09,0,0,1-.94.87c-.54.05-.81-.35-1-.76-.5-1.07-1-2.15-1.48-3.22s-.88-1.85-1.29-2.78c-.22-.46-.46-.59-1-.36-1.92.93-3.86,1.81-5.79,2.71-.49.22-1,.48-1.45,0s-.29-.94-.1-1.46q2.74-7.47,5.46-15a2.21,2.21,0,0,0-1.27-2.95c-.54-.24-1.09-.45-1.64-.68-2-.82-2.61-1.84-2.47-3.95a7.87,7.87,0,0,1,.17-1.28,3.26,3.26,0,0,0-.85-3.14A7.05,7.05,0,0,1,.35,21.43a3.14,3.14,0,0,1,.18-3.19,12.71,12.71,0,0,1,1.25-1.69,3.18,3.18,0,0,0,.7-2.92A9.81,9.81,0,0,1,2.29,12,3.25,3.25,0,0,1,4.45,8.52c.6-.27,1.21-.51,1.83-.75a2.58,2.58,0,0,0,1.48-1.5C8,5.62,8.27,5,8.58,4.32a3.31,3.31,0,0,1,3.64-2c.74.07,1.48.18,2.23.27A2.31,2.31,0,0,0,16.22,2c.62-.49,1.25-1,1.91-1.42a3.25,3.25,0,0,1,3.72,0,21.54,21.54,0,0,1,1.8,1.34,2.59,2.59,0,0,0,2.09.62c.67-.09,1.35-.19,2-.26a3.3,3.3,0,0,1,3.65,2,12.77,12.77,0,0,1,.68,1.63,3,3,0,0,0,2.12,2c.47.16.93.36,1.39.56a3.33,3.33,0,0,1,2.15,3.4c-.08.6-.14,1.21-.25,1.82a3,3,0,0,0,.63,2.67A16.69,16.69,0,0,1,39.36,18.06Zm-2.51,4.11c1.71-2,1.7-2.43,0-4.39a4.67,4.67,0,0,1-1.19-4,18.47,18.47,0,0,0,.23-2.1A1.39,1.39,0,0,0,35,10.37a5.19,5.19,0,0,0-1-.49,5.37,5.37,0,0,1-3.85-3.77c-.69-2-1-2.13-3.12-1.83-1.45.21-2.9.34-4.18-.63-.57-.43-1.11-.87-1.68-1.28a1.58,1.58,0,0,0-2.28,0c-.48.34-.94.7-1.41,1.07a4.19,4.19,0,0,1-3,1,21.08,21.08,0,0,1-2.1-.24,1.7,1.7,0,0,0-2.22,1.17,9.22,9.22,0,0,0-.46,1.13A5,5,0,0,1,6.28,9.8c-2.14.74-2.36,1.12-2,3.34a5,5,0,0,1-.85,4.33,16.08,16.08,0,0,0-1.27,1.68,1.43,1.43,0,0,0,0,1.71c.23.34.48.67.73,1A8.85,8.85,0,0,1,4.14,23.7a5.29,5.29,0,0,1,.13,3.15c-.4,2.09-.2,2.57,1.77,3.25a5.79,5.79,0,0,1,3.8,3.68c.81,2.26,1,2.35,3.37,1.93a5.41,5.41,0,0,1,4.89,1.36c1.6,1.42,2.08,1.38,3.75.07a3.47,3.47,0,0,1,.36-.31,4.76,4.76,0,0,1,3.16-1.29l2.63.33a1.53,1.53,0,0,0,1.73-1c.24-.51.45-1,.65-1.57a4.54,4.54,0,0,1,2.7-2.8c.68-.25,1.34-.57,2-.88a1.3,1.3,0,0,0,.78-1.32,9.81,9.81,0,0,0-.18-1.7A4.94,4.94,0,0,1,36.85,22.17ZM35.13,48.92c.17-.15.06-.34,0-.51-.2-.57-.42-1.14-.63-1.72q-1.68-4.59-3.34-9.2c-.17-.49-.35-.76-.9-.33a3.27,3.27,0,0,1-2.45.55l-2.28-.27a2.54,2.54,0,0,0-1.56.44,17.61,17.61,0,0,1-2.25,1.63.57.57,0,0,0-.35.82c.17.51.37,1,.55,1.53q1.77,4.89,3.55,9.78c.09.24.11.62.44.61s.31-.34.42-.57c.7-1.5,1.41-3,2.12-4.49a.94.94,0,0,1,1-.67,3.88,3.88,0,0,1,1,.38c1.4.64,2.79,1.3,4.19,2C34.79,48.92,35,49.07,35.13,48.92ZM18.66,40.25c.07-.39,0-.56-.27-.68a3.44,3.44,0,0,1-.69-.42c-2.78-2.23-2.23-1.75-5.52-1.44l-.2,0a3.19,3.19,0,0,1-2.19-.55c-.54-.42-.76-.22-1,.33C7.57,41,6.28,44.54,5,48.05c-.1.28-.43.63-.12.87s.58-.13.86-.26c1.4-.64,2.79-1.31,4.19-1.94.89-.4,1.26-.27,1.69.61.71,1.49,1.4,3,2.1,4.49.09.18.15.43.38.44s.25-.28.36-.44a.8.8,0,0,0,.09-.26q1.88-5.13,3.74-10.28C18.45,40.9,18.57,40.51,18.66,40.25Z"/><path class="cls-2" d="M29.92,17.73a1.19,1.19,0,0,1-.46,1.05c-1.18,1.2-2.33,2.42-3.52,3.61a1,1,0,0,0-.34,1c.27,1.61.53,3.22.79,4.84l.09.53a1,1,0,0,1-.43,1.08.9.9,0,0,1-.24.12,1.11,1.11,0,0,1-.9-.18c-1.43-.8-2.87-1.57-4.29-2.38a1.13,1.13,0,0,0-1.26,0C17.93,28.2,16.47,29,15,29.78a1.08,1.08,0,0,1-1,.1,1.2,1.2,0,0,1-.53-1.2c.2-1.21.38-2.61.68-4a2.68,2.68,0,0,0-.85-3.07,31.19,31.19,0,0,1-2.9-3,1.28,1.28,0,0,1-.39-.85c0-.42.33-.77,1-.88,1.63-.28,3.27-.53,4.91-.76a1,1,0,0,0,.9-.69c.68-1.51,1.4-3,2.12-4.49.22-.46.44-.92,1.06-.92a.66.66,0,0,1,.21,0c.46.09.65.51.84.91.71,1.47,1.42,2.93,2.08,4.43a1.14,1.14,0,0,0,1,.74c1.55.21,3.1.47,4.65.71.46.07.91.16,1.08.68A.48.48,0,0,1,29.92,17.73ZM26.3,19.28c.18-.19.54-.32.42-.63s-.47-.25-.73-.29c-.92-.16-1.84-.29-2.75-.41a1.71,1.71,0,0,1-1.55-1.13c-.41-1-.92-2-1.38-3-.07-.14-.11-.31-.31-.31s-.25.17-.31.31c-.45.94-1,1.86-1.33,2.84A1.91,1.91,0,0,1,16.56,18c-1,.11-1.93.3-2.89.45-.52.09-.53.32-.18.67.81.81,1.57,1.64,2.38,2.44a1.54,1.54,0,0,1,.48,1.53c-.22,1.13-.39,2.28-.55,3.3,0,.3-.09.5.13.61s.35,0,.51-.12c.93-.51,1.87-1,2.79-1.55a1.43,1.43,0,0,1,1.54,0c.88.51,1.78,1,2.67,1.49.19.1.4.29.63.17s.13-.45.1-.68c-.16-1.08-.32-2.15-.52-3.23a1.52,1.52,0,0,1,.48-1.52C24.87,20.8,25.59,20,26.3,19.28Z"/></g></g></svg>